<svg width="340" height="100" viewBox="0 0 340 100" fill="none" xmlns="http://www.w3.org/2000/svg">
<path d="M110.75 83H108.057V74.2727H110.869C111.716 74.2727 112.44 74.4474 113.043 74.7969C113.645 75.1435 114.107 75.642 114.428 76.2926C114.749 76.9403 114.909 77.7159 114.909 78.6193C114.909 79.5284 114.747 80.3111 114.423 80.9673C114.099 81.6207 113.628 82.1236 113.009 82.4759C112.389 82.8253 111.636 83 110.75 83ZM109.114 82.0625H110.682C111.403 82.0625 112.001 81.9233 112.476 81.6449C112.95 81.3665 113.304 80.9702 113.537 80.456C113.77 79.9418 113.886 79.3295 113.886 78.6193C113.886 77.9148 113.771 77.3082 113.541 76.7997C113.311 76.2884 112.967 75.8963 112.51 75.6236C112.053 75.348 111.483 75.2102 110.801 75.2102H109.114V82.0625ZM125.289 74.2727H126.346V80.0511C126.346 80.6477 126.205 81.1804 125.924 81.6491C125.646 82.1151 125.252 82.483 124.744 82.7528C124.235 83.0199 123.639 83.1534 122.954 83.1534C122.269 83.1534 121.673 83.0199 121.164 82.7528C120.656 82.483 120.261 82.1151 119.979 81.6491C119.701 81.1804 119.562 80.6477 119.562 80.0511V74.2727H120.619V79.9659C120.619 80.392 120.712 80.7713 120.9 81.1037C121.087 81.4332 121.354 81.6932 121.701 81.8835C122.05 82.071 122.468 82.1648 122.954 82.1648C123.44 82.1648 123.857 82.071 124.207 81.8835C124.556 81.6932 124.823 81.4332 125.008 81.1037C125.195 80.7713 125.289 80.392 125.289 79.9659V74.2727ZM138.257 74.2727V83H137.234L132.478 76.1477H132.393V83H131.336V74.2727H132.359L137.132 81.142H137.217V74.2727H138.257ZM150.172 74.2727V83H149.149L144.394 76.1477H144.308V83H143.252V74.2727H144.274L149.047 81.142H149.132V74.2727H150.172ZM155.525 83H154.417L157.621 74.2727H158.712L161.917 83H160.809L158.201 75.6534H158.133L155.525 83ZM155.934 79.5909H160.4V80.5284H155.934V79.5909ZM171.712 77C171.618 76.7131 171.494 76.456 171.341 76.2287C171.19 75.9986 171.01 75.8026 170.8 75.6406C170.592 75.4787 170.357 75.3551 170.092 75.2699C169.828 75.1847 169.538 75.142 169.223 75.142C168.706 75.142 168.236 75.2756 167.813 75.5426C167.389 75.8097 167.053 76.2031 166.803 76.723C166.553 77.2429 166.428 77.8807 166.428 78.6364C166.428 79.392 166.554 80.0298 166.807 80.5497C167.06 81.0696 167.402 81.4631 167.834 81.7301C168.266 81.9972 168.752 82.1307 169.291 82.1307C169.791 82.1307 170.232 82.0241 170.612 81.8111C170.996 81.5952 171.294 81.2912 171.507 80.8991C171.723 80.5043 171.831 80.0398 171.831 79.5057L172.155 79.5739H169.53V78.6364H172.854V79.5739C172.854 80.2926 172.7 80.9176 172.394 81.4489C172.09 81.9801 171.669 82.392 171.132 82.6847C170.598 82.9744 169.985 83.1193 169.291 83.1193C168.519 83.1193 167.84 82.9375 167.254 82.5739C166.672 82.2102 166.217 81.6932 165.891 81.0227C165.567 80.3523 165.405 79.5568 165.405 78.6364C165.405 77.946 165.497 77.3253 165.682 76.7741C165.869 76.2202 166.134 75.7486 166.475 75.3594C166.815 74.9702 167.219 74.6719 167.685 74.4645C168.151 74.2571 168.663 74.1534 169.223 74.1534C169.683 74.1534 170.112 74.223 170.51 74.3622C170.911 74.4986 171.267 74.6932 171.58 74.946C171.895 75.196 172.158 75.4957 172.368 75.8452C172.578 76.1918 172.723 76.5767 172.803 77H171.712ZM177.544 83V74.2727H182.811V75.2102H178.601V78.1591H182.538V79.0966H178.601V82.0625H182.879V83H177.544ZM193.851 83V74.2727H196.902C197.51 74.2727 198.011 74.3778 198.406 74.5881C198.801 74.7955 199.095 75.0753 199.288 75.4276C199.481 75.777 199.578 76.1648 199.578 76.5909C199.578 76.9659 199.511 77.2756 199.378 77.5199C199.247 77.7642 199.074 77.9574 198.858 78.0994C198.645 78.2415 198.413 78.3466 198.163 78.4148V78.5C198.43 78.517 198.699 78.6108 198.969 78.7812C199.239 78.9517 199.464 79.196 199.646 79.5142C199.828 79.8324 199.919 80.2216 199.919 80.6818C199.919 81.1193 199.819 81.5128 199.621 81.8622C199.422 82.2116 199.108 82.4886 198.679 82.6932C198.25 82.8977 197.692 83 197.004 83H193.851ZM194.908 82.0625H197.004C197.694 82.0625 198.185 81.929 198.474 81.6619C198.767 81.392 198.913 81.0653 198.913 80.6818C198.913 80.3864 198.838 80.1136 198.687 79.8636C198.537 79.6108 198.322 79.4091 198.044 79.2585C197.765 79.1051 197.436 79.0284 197.055 79.0284H194.908V82.0625ZM194.908 78.108H196.868C197.186 78.108 197.473 78.0455 197.729 77.9205C197.987 77.7955 198.192 77.6193 198.342 77.392C198.496 77.1648 198.572 76.8977 198.572 76.5909C198.572 76.2074 198.439 75.8821 198.172 75.6151C197.905 75.3452 197.481 75.2102 196.902 75.2102H194.908V78.108ZM204.893 83H203.785L206.99 74.2727H208.081L211.285 83H210.177L207.57 75.6534H207.501L204.893 83ZM205.302 79.5909H209.768V80.5284H205.302V79.5909ZM221.081 77C220.987 76.7131 220.863 76.456 220.71 76.2287C220.559 75.9986 220.379 75.8026 220.169 75.6406C219.961 75.4787 219.725 75.3551 219.461 75.2699C219.197 75.1847 218.907 75.142 218.592 75.142C218.075 75.142 217.605 75.2756 217.181 75.5426C216.758 75.8097 216.421 76.2031 216.171 76.723C215.921 77.2429 215.796 77.8807 215.796 78.6364C215.796 79.392 215.923 80.0298 216.176 80.5497C216.429 81.0696 216.771 81.4631 217.203 81.7301C217.635 81.9972 218.12 82.1307 218.66 82.1307C219.16 82.1307 219.6 82.0241 219.981 81.8111C220.365 81.5952 220.663 81.2912 220.876 80.8991C221.092 80.5043 221.2 80.0398 221.2 79.5057L221.524 79.5739H218.899V78.6364H222.223V79.5739C222.223 80.2926 222.069 80.9176 221.762 81.4489C221.458 81.9801 221.038 82.392 220.501 82.6847C219.967 82.9744 219.353 83.1193 218.66 83.1193C217.887 83.1193 217.208 82.9375 216.623 82.5739C216.041 82.2102 215.586 81.6932 215.26 81.0227C214.936 80.3523 214.774 79.5568 214.774 78.6364C214.774 77.946 214.866 77.3253 215.051 76.7741C215.238 76.2202 215.502 75.7486 215.843 75.3594C216.184 74.9702 216.588 74.6719 217.054 74.4645C217.519 74.2571 218.032 74.1534 218.592 74.1534C219.052 74.1534 219.481 74.223 219.879 74.3622C220.279 74.4986 220.636 74.6932 220.948 74.946C221.264 75.196 221.527 75.4957 221.737 75.8452C221.947 76.1918 222.092 76.5767 222.171 77H221.081Z" fill="#035800"/>
<path d="M109.25 28.0909H121.045L129.159 47.8636H129.568L137.682 28.0909H149.477V63H140.205V42.8182H139.932L132.159 62.7273H126.568L118.795 42.6818H118.523V63H109.25V28.0909ZM172.787 39C172.696 37.8636 172.27 36.9773 171.509 36.3409C170.759 35.7045 169.616 35.3864 168.082 35.3864C167.105 35.3864 166.304 35.5057 165.679 35.7443C165.065 35.9716 164.611 36.2841 164.315 36.6818C164.02 37.0795 163.866 37.5341 163.855 38.0455C163.832 38.4659 163.906 38.8466 164.077 39.1875C164.259 39.517 164.543 39.8182 164.929 40.0909C165.315 40.3523 165.81 40.5909 166.412 40.8068C167.014 41.0227 167.73 41.2159 168.56 41.3864L171.423 42C173.355 42.4091 175.009 42.9489 176.384 43.6193C177.759 44.2898 178.884 45.0795 179.759 45.9886C180.634 46.8864 181.276 47.8977 181.685 49.0227C182.105 50.1477 182.321 51.375 182.332 52.7045C182.321 55 181.747 56.9432 180.611 58.5341C179.474 60.125 177.849 61.3352 175.736 62.1648C173.634 62.9943 171.105 63.4091 168.151 63.4091C165.116 63.4091 162.469 62.9602 160.207 62.0625C157.957 61.1648 156.207 59.7841 154.957 57.9205C153.719 56.0455 153.094 53.6477 153.082 50.7273H162.082C162.139 51.7955 162.406 52.6932 162.884 53.4205C163.361 54.1477 164.031 54.6989 164.895 55.0739C165.77 55.4489 166.81 55.6364 168.014 55.6364C169.026 55.6364 169.872 55.5114 170.554 55.2614C171.236 55.0114 171.753 54.6648 172.105 54.2216C172.457 53.7784 172.639 53.2727 172.651 52.7045C172.639 52.1705 172.463 51.7045 172.122 51.3068C171.793 50.8977 171.247 50.5341 170.486 50.2159C169.724 49.8864 168.696 49.5795 167.401 49.2955L163.923 48.5455C160.832 47.875 158.395 46.7557 156.611 45.1875C154.838 43.608 153.957 41.4545 153.969 38.7273C153.957 36.5114 154.548 34.5739 155.741 32.9148C156.946 31.2443 158.611 29.9432 160.736 29.0114C162.872 28.0795 165.321 27.6136 168.082 27.6136C170.901 27.6136 173.338 28.0852 175.395 29.0284C177.452 29.9716 179.037 31.3011 180.151 33.017C181.276 34.7216 181.844 36.7159 181.855 39H172.787ZM218.528 41.1818H208.915C208.847 40.3864 208.665 39.6648 208.369 39.017C208.085 38.3693 207.688 37.8125 207.176 37.3466C206.676 36.8693 206.068 36.5057 205.352 36.2557C204.636 35.9943 203.824 35.8636 202.915 35.8636C201.324 35.8636 199.977 36.25 198.875 37.0227C197.784 37.7955 196.955 38.9034 196.386 40.3466C195.83 41.7898 195.551 43.5227 195.551 45.5455C195.551 47.6818 195.835 49.4716 196.403 50.9148C196.983 52.3466 197.818 53.4261 198.909 54.1534C200 54.8693 201.313 55.2273 202.847 55.2273C203.722 55.2273 204.506 55.1193 205.199 54.9034C205.892 54.6761 206.494 54.3523 207.006 53.9318C207.517 53.5114 207.932 53.0057 208.25 52.4148C208.58 51.8125 208.801 51.1364 208.915 50.3864L218.528 50.4545C218.415 51.9318 218 53.4375 217.284 54.9716C216.568 56.4943 215.551 57.9034 214.233 59.1989C212.926 60.483 211.307 61.517 209.375 62.3011C207.443 63.0852 205.199 63.4773 202.642 63.4773C199.438 63.4773 196.562 62.7898 194.017 61.4148C191.483 60.0398 189.477 58.017 188 55.3466C186.534 52.6761 185.801 49.4091 185.801 45.5455C185.801 41.6591 186.551 38.3864 188.051 35.7273C189.551 33.0568 191.574 31.0398 194.119 29.6761C196.665 28.3011 199.506 27.6136 202.642 27.6136C204.847 27.6136 206.875 27.9148 208.727 28.517C210.58 29.1193 212.205 30 213.602 31.1591C215 32.3068 216.125 33.7216 216.977 35.4034C217.83 37.0852 218.347 39.0114 218.528 41.1818ZM232.305 28.0909V63H222.828V28.0909H232.305ZM267.001 28.0909V63H259.092L246.479 44.6591H246.274V63H236.797V28.0909H244.842L257.251 46.3636H257.524V28.0909H267.001ZM280.553 63H270.325L281.848 28.0909H294.803L306.325 63H296.098L288.462 37.7045H288.189L280.553 63ZM278.643 49.2273H297.871V56.3182H278.643V49.2273ZM309.688 63V28.0909H324.756C327.347 28.0909 329.614 28.5625 331.557 29.5057C333.5 30.4489 335.011 31.8068 336.091 33.5795C337.17 35.3523 337.71 37.4773 337.71 39.9545C337.71 42.4545 337.153 44.5625 336.04 46.2784C334.938 47.9943 333.386 49.2898 331.386 50.1648C329.398 51.0398 327.074 51.4773 324.415 51.4773H315.415V44.1136H322.506C323.619 44.1136 324.568 43.9773 325.352 43.7045C326.148 43.4205 326.756 42.9716 327.176 42.358C327.608 41.7443 327.824 40.9432 327.824 39.9545C327.824 38.9545 327.608 38.142 327.176 37.517C326.756 36.8807 326.148 36.4148 325.352 36.1193C324.568 35.8125 323.619 35.6591 322.506 35.6591H319.165V63H309.688ZM330.142 46.9773L338.869 63H328.574L320.051 46.9773H330.142Z" fill="#035800"/>
<path d="M61.3145 16.1958C61.3972 16.1919 61.4747 16.1861 61.5545 16.2125C61.7432 16.275 61.8607 16.4476 61.9626 16.6082C62.2217 17.0165 62.3962 17.499 62.6109 17.9335C62.8891 18.4961 63.2101 19.0432 63.5312 19.5822C63.9783 20.3327 64.486 21.0443 64.9574 21.7792C65.7656 23.0392 66.5125 24.2954 67.214 25.618C67.5082 25.25 68.0418 24.4385 68.5274 24.3281C69.6546 24.0717 70.9275 29.6774 71.3588 29.9494C71.632 29.9393 72.0497 29.2688 72.3279 29.0901C72.4737 28.9966 72.6448 28.933 72.8187 28.9777C73.0603 29.0398 73.2186 29.272 73.3304 29.479C73.6304 30.035 73.8173 30.6973 74.0116 31.2968C74.0585 31.444 74.1031 31.5918 74.1453 31.7404C74.1876 31.8889 74.2274 32.0381 74.265 32.1879C74.3025 32.3378 74.3376 32.4881 74.3705 32.639C74.4033 32.79 74.4337 32.9414 74.4617 33.0933C74.4897 33.2451 74.5153 33.3974 74.5385 33.5501C74.5618 33.7028 74.5826 33.8558 74.601 34.0092C74.6194 34.1625 74.6354 34.3161 74.649 34.47C74.6625 34.6238 74.6737 34.7778 74.6824 34.932C74.6911 35.0862 74.6974 35.2405 74.7013 35.3949C74.7051 35.5493 74.7066 35.7037 74.7056 35.8581C74.7045 36.0126 74.7011 36.167 74.6952 36.3213C74.6894 36.4757 74.6811 36.6299 74.6704 36.7839C74.6596 36.938 74.6465 37.0919 74.6309 37.2456C74.6153 37.3992 74.5974 37.5526 74.577 37.7057C74.5565 37.8588 74.5337 38.0115 74.5085 38.1639C74.4832 38.3162 74.4557 38.4682 74.4257 38.6197C74.2894 39.3399 74.0921 40.0423 73.9107 40.7519C73.7 41.5759 73.5062 42.4074 73.2601 43.2217C73.9213 42.241 74.6083 41.2035 75.4209 40.3426C75.7933 39.9496 76.1919 39.5852 76.6164 39.2492C77.245 38.7558 79.6605 37.0814 80.3794 37.0838C80.5232 37.0843 80.6521 37.1277 80.7494 37.237C81.0293 37.5514 80.9171 38.2321 80.9035 38.6232C81.2218 38.3484 81.5408 38.076 81.881 37.8282C82.9184 37.0725 84.0942 36.7059 85.2769 36.2521C86.2843 35.8655 87.2932 35.4531 88.2463 34.9447C89.0783 34.5009 89.8414 33.9629 90.6106 33.4205C91.0889 33.0833 91.6396 32.5959 92.1878 32.3919C92.3368 32.3364 92.5076 32.2979 92.6665 32.3291C92.8254 32.3602 92.9267 32.4488 93.0082 32.585C93.0807 32.7064 93.111 32.8013 93.0892 32.943C93.0448 33.2325 92.943 33.5269 92.8705 33.8118C92.7317 34.3575 92.6093 34.9033 92.5304 35.4611C92.3766 36.5501 92.327 37.6449 92.2065 38.7366C92.0791 39.8211 91.8824 40.8929 91.6162 41.952C92.0251 41.8511 92.5424 41.798 92.9297 41.9984C93.1384 42.1063 93.2823 42.2887 93.3432 42.5151C93.5947 43.4505 92.3117 46.1201 91.801 47.0371C91.4877 47.5997 91.1172 48.1272 90.7972 48.6861C91.2936 48.528 91.8322 48.3169 92.3537 48.2776C92.552 48.2627 92.7711 48.2824 92.9242 48.4234C93.0732 48.5608 93.1028 48.7752 93.1005 48.9677C93.0928 49.6395 92.8607 50.3639 92.6485 50.9992C91.7776 53.6063 90.5017 55.4273 88.5353 57.3196C88.6703 57.6119 88.8414 57.8267 89.0945 58.0245C89.7952 58.5722 91.444 59.123 92.3328 59.354C92.7521 59.463 93.8547 59.6178 94.1421 59.9359C94.1653 60.0698 94.1512 60.1554 94.0862 60.2764C93.8059 60.7977 92.853 61.5872 92.4043 62.0579C91.7631 62.7305 91.1554 63.4362 90.5038 64.0987C88.7393 65.8925 86.6797 67.3976 84.2702 68.1806C84.6764 68.7078 85.1997 69.0804 85.6543 69.5554C85.7512 69.6567 85.8909 69.7964 85.8642 69.9493C85.8366 70.1072 85.6723 70.2489 85.5557 70.3437C84.21 71.4375 82.0719 71.9477 80.3621 71.9625C79.6144 71.969 78.8625 71.8682 78.1192 71.7928C78.9052 72.3151 79.6586 72.9336 80.3616 73.5615C81.5916 74.6603 82.6073 76.0269 83.6493 77.298C84.0638 77.8037 84.617 78.3737 84.9544 78.925C85.0545 79.0888 85.1218 79.2373 85.1325 79.43C85.077 79.5636 84.9992 79.6967 84.8621 79.7605C84.6288 79.869 82.2 79.9381 81.7166 79.9835C80.596 80.0887 79.4956 80.3572 78.3881 80.5512C76.7606 80.8362 74.9126 80.8936 73.2894 80.5718C72.5157 80.4184 71.7451 80.1573 71.0085 79.8766C70.0741 79.5206 69.2088 79.0323 68.3777 78.4803C65.469 76.5486 63.6282 73.9649 62.21 70.8098C62.284 73.6024 62.2754 76.3986 62.3865 79.1897C62.44 80.533 62.4883 81.883 62.6655 83.217C62.8185 84.3687 63.1105 85.504 63.3623 86.6369C62.7843 86.8955 62.2045 87.1633 61.6649 87.4963C61.6132 87.5248 61.5536 87.564 61.4975 87.5814C61.4842 87.5855 61.4027 87.6042 61.38 87.6009C61.1566 87.5691 59.8109 86.8318 59.4367 86.6636C59.7063 85.6219 59.953 84.5792 60.1053 83.5125C60.3205 82.0056 60.3827 80.4838 60.4356 78.9642C60.5312 76.213 60.5092 73.4456 60.6665 70.6982C60.1256 72.1497 58.806 74.3746 57.7836 75.556C55.4628 78.2378 51.8972 80.496 48.2968 80.7461C47.5043 80.7994 46.7126 80.7908 45.9215 80.7201C44.3947 80.5845 42.9121 80.1961 41.3955 80.0331C40.8424 79.9736 40.2801 79.9266 39.7236 79.9213C39.298 79.9173 38.8345 79.9712 38.4143 79.9109C38.2903 79.8931 38.1828 79.8577 38.0899 79.7704C37.9764 79.6635 37.9067 79.5122 37.9084 79.3557C37.9141 78.8325 40.3405 75.7876 40.8189 75.2366C41.3397 74.6339 41.8919 74.0614 42.4755 73.5192C43.1323 72.9203 43.9032 72.4721 44.5769 71.8975L44.6258 71.8555C43.4996 71.7501 42.354 71.9999 41.2222 71.9114C39.8436 71.8035 37.7689 70.7731 36.8777 69.7205C37.4757 69.195 38.2291 68.8208 38.868 68.3387C37.364 67.8316 35.2425 66.7151 33.9774 65.772C33.5421 65.4474 33.1269 65.0538 32.7422 64.6699C31.9775 63.9064 31.3016 63.0579 30.5724 62.2609C30.1004 61.745 29.526 61.2601 29.1086 60.7026C28.9596 60.5036 28.7335 60.1819 28.7451 59.9254C28.7524 59.7618 28.8566 59.6335 29.0085 59.5774C29.3453 59.4532 29.7908 59.448 30.1478 59.3951C31.2667 59.2292 32.5599 58.9008 33.4343 58.1375C33.7503 57.8616 33.9635 57.5001 33.836 57.0737C33.6581 56.4792 32.8076 55.7262 32.4018 55.216C31.8121 54.4745 31.0073 53.3123 30.6138 52.4652C30.3026 51.7953 30.0813 51.0671 29.886 50.356C29.7593 49.8945 29.6077 49.3672 29.6478 48.8838C29.6611 48.7225 29.7043 48.5261 29.8469 48.4282C30.254 48.1489 31.7709 48.6028 32.2646 48.738C31.9638 48.2226 31.5727 47.7592 31.2312 47.2699C30.3338 45.9845 29.7417 44.5291 29.6524 42.9516C29.6346 42.6382 29.593 42.1361 29.8131 41.8885C30.1358 41.7382 30.7618 41.8966 31.1023 41.9502C31.1086 41.4497 31.0812 40.9511 31.0202 40.4543C30.9404 39.8178 30.8198 39.1849 30.7258 38.5501C30.5976 37.6835 30.4888 36.8124 30.34 35.9491C30.1649 34.933 29.9331 33.9108 29.8437 32.8829C29.834 32.7713 29.8215 32.6402 29.8851 32.5416C29.9484 32.4438 30.0404 32.38 30.156 32.3617C30.219 32.3517 30.2842 32.3525 30.3474 32.3601C31.2546 32.4696 33.3227 34.2119 34.3115 34.7752C35.6068 35.5131 37.04 35.9591 38.4179 36.5112C39.7343 37.0387 40.7812 37.6104 41.9242 38.4534C41.9391 38.2675 41.9542 38.0816 41.984 37.8974C42.0292 37.6177 42.0973 37.2959 42.3489 37.1272C42.4938 37.03 42.6799 37.0325 42.8443 37.068C43.2103 37.1471 43.5591 37.379 43.8755 37.5715C45.383 38.4887 46.8685 39.729 47.9648 41.1156C48.5774 41.8903 49.0364 42.73 49.5546 43.5658C49.3993 42.97 49.277 42.3651 49.1234 41.7684C48.776 40.4195 48.4065 39.0837 48.2028 37.7026C48.1794 37.5526 48.1586 37.4023 48.1404 37.2515C48.1222 37.1008 48.1066 36.9498 48.0936 36.7985C48.0807 36.6473 48.0703 36.4958 48.0626 36.3442C48.0549 36.1926 48.0497 36.0409 48.0472 35.8891C48.0448 35.7373 48.0449 35.5855 48.0477 35.4337C48.0504 35.2819 48.0558 35.1302 48.0639 34.9787C48.0718 34.8271 48.0824 34.6756 48.0957 34.5244C48.1089 34.3732 48.1248 34.2222 48.1433 34.0715C48.1617 33.9208 48.1828 33.7705 48.2065 33.6206C48.2302 33.4706 48.2564 33.321 48.2852 33.172C48.3141 33.023 48.3455 32.8745 48.3794 32.7265C48.4134 32.5785 48.45 32.4312 48.489 32.2845C48.5281 32.1378 48.5696 31.9918 48.6138 31.8465C48.6579 31.7013 48.7045 31.5568 48.7536 31.4131C48.8027 31.2695 48.8543 31.1267 48.9084 30.9849C48.9625 30.843 49.019 30.7021 49.0779 30.5622C49.2471 30.1696 49.4233 29.7078 49.6869 29.3711C49.7879 29.2423 49.921 29.1239 50.0932 29.1176C50.5003 29.1025 51.0838 29.7236 51.3841 29.9852C51.5816 29.566 51.7817 29.1452 51.9471 28.712C52.3962 27.5357 52.9221 25.7299 53.6664 24.7384C53.7797 24.5876 53.9795 24.3718 54.1869 24.3719C54.5236 24.3721 55.406 25.3769 55.6608 25.6338C55.9912 24.9866 56.4136 24.3682 56.7976 23.7503C57.8469 22.0617 58.9784 20.4023 59.9018 18.6398C60.1795 18.1098 60.7069 16.8307 61.0142 16.4369C61.0975 16.3303 61.1996 16.2641 61.3145 16.1958Z" fill="black"/>
<path d="M58.6145 22.9698C59.4338 21.3867 60.5313 19.8448 61.4536 18.3051C62.0726 19.4718 62.7702 20.5826 63.4871 21.6906C63.8631 22.2717 64.5104 23.148 64.7693 23.7568C64.743 23.7611 64.7132 23.7837 64.6904 23.7698C64.6495 23.7449 64.3106 23.112 64.2428 23.0025C64.0316 22.6619 61.8655 19.2272 61.8199 19.2054C61.6464 19.253 61.0532 19.2728 61.0525 19.2733C60.5483 19.5797 58.9918 22.7334 58.6605 22.9429C58.6455 22.9524 58.6298 22.9608 58.6145 22.9698Z" fill="white"/>
<path d="M62.2039 40.2951C62.4876 39.9484 62.7914 39.591 63.1116 39.2782L63.1203 39.3565C62.8556 39.6849 62.5731 40.0098 62.2672 40.3011C62.2697 40.9011 62.3084 41.5013 62.3218 42.1015C62.3626 43.9315 62.4074 45.7685 62.4137 47.599L62.3988 50.8722C62.3992 51.3022 62.3475 51.8042 62.4235 52.2231C62.5507 52.2231 62.7625 52.2277 62.8664 52.1381C62.9042 52.1055 62.9177 52.0579 62.9369 52.0143C63.1257 51.5843 63.9373 50.6179 64.2567 50.1651C65.0228 49.0633 65.766 47.9463 66.4865 46.8142C66.6622 46.537 67.29 45.3245 67.5005 45.2258C67.0922 46.0667 66.5438 46.8725 66.0344 47.6549C64.8493 49.4751 63.5717 51.2176 62.3202 52.9913C62.3322 50.4702 62.3283 47.9492 62.3087 45.4281C62.2839 43.7172 62.2204 42.0056 62.2039 40.2951Z" fill="white"/>
<path d="M61.5432 21.8802L61.6072 21.9153C61.6725 22.6006 61.6693 23.3063 61.7163 23.9955C61.736 24.2842 61.8239 24.5823 61.8304 24.8645C61.8339 25.0133 61.7792 25.1597 61.7817 25.3061C61.7842 25.4558 61.9022 25.5796 61.9251 25.7249C61.954 25.9094 61.871 26.1113 61.8836 26.2997C61.8973 26.5033 62.0028 26.7138 62.0494 26.9135C62.0643 26.9769 62.0712 27.0409 62.0743 27.1059C62.1185 28.0192 62.062 28.9418 62.0771 29.857C62.1027 31.4105 62.1928 32.965 62.231 34.518C62.2409 34.9198 62.1974 35.3255 62.193 35.7275C62.1912 35.8938 62.2272 36.0543 62.2332 36.219C62.2567 36.8588 62.2137 37.5068 62.2322 38.1497C62.314 38.2058 62.3295 38.2209 62.4335 38.1936C62.7343 38.1147 64.0037 36.2814 64.2556 35.9117C64.4201 35.6702 64.5774 35.3662 64.7691 35.1498C64.8188 35.0938 64.8358 35.0855 64.9071 35.0686C64.4052 35.9853 62.8934 37.9929 62.16 38.7577C62.1288 37.0778 62.1558 35.3965 62.1322 33.7164C62.1075 31.9505 62.0329 30.1699 61.9518 28.4052C61.8528 26.2502 61.5342 24.0234 61.5432 21.8802Z" fill="white"/>
<path d="M57.6142 51.2358C57.9416 51.6008 58.4347 52.5281 58.7452 52.9854C59.2968 53.7982 60.0888 54.7463 60.5508 55.5735L60.5569 64.0578C58.7877 62.7637 57.1099 61.3583 55.4196 59.9652C54.7122 59.3822 53.8982 58.8317 53.2576 58.1792C53.3034 58.1836 53.344 58.1846 53.3846 58.2096C53.7463 58.4329 54.488 59.1144 54.8631 59.4187C56.2221 60.521 57.5626 61.639 58.9354 62.7251C59.2582 62.9805 60.0976 63.7686 60.4692 63.8276C60.4726 63.815 60.4768 63.8027 60.4794 63.7899C60.5165 63.6026 60.5162 62.8216 60.4227 62.6959C60.3448 62.5912 60.2704 62.496 60.2137 62.3769C60.0097 61.9488 59.8963 60.8494 59.8639 60.3326C59.8231 59.68 59.9048 56.2266 60.0779 55.7348C60.1181 55.6207 60.2244 55.3741 60.2129 55.2597C60.1837 54.967 57.6309 51.7348 57.6102 51.2758C57.6096 51.2625 57.6129 51.2491 57.6142 51.2358Z" fill="white"/>
<path d="M58.1331 35.159C58.4727 35.2416 59.1714 36.8987 59.6801 37.0766C59.7562 37.1032 59.8353 37.0897 59.9058 37.0532C60.1164 36.9443 60.2233 36.6348 60.2729 36.4214C60.338 36.1412 60.318 35.8218 60.3339 35.5342C60.3692 34.891 60.435 33.7525 60.6329 33.1547C60.7719 32.7348 60.668 31.5362 60.6689 31.0262C60.6707 29.9526 60.7742 28.8711 60.7921 27.7974C60.798 27.4468 60.8199 27.0729 60.7812 26.7247C60.7471 26.4182 60.6656 26.1156 60.6538 25.807C60.6365 25.3592 60.7259 24.9285 60.7747 24.486C60.8093 24.1712 60.8047 23.8483 60.813 23.5319C60.8157 23.4306 60.8032 23.2998 60.8273 23.2017C60.8555 23.0868 60.9411 22.9545 60.9945 22.8481L61.019 22.8682C61.0128 22.9294 61.0142 22.9774 61.0245 23.038L61.2038 22.9541C61.3265 22.7301 61.2744 21.475 61.4053 21.0888L61.4826 21.0809C61.3492 21.7257 61.3337 22.4174 61.2886 23.0741C61.2102 24.1287 61.1471 25.1844 61.0991 26.2409C60.8866 30.3773 60.7884 34.5164 60.8045 38.6582C59.9686 37.776 59.2732 36.8416 58.5756 35.8464C58.4421 35.656 58.1949 35.3729 58.1331 35.159Z" fill="white"/>
<path d="M58.6637 37.7375C58.9438 38.0304 59.1687 38.4039 59.4207 38.724C59.8292 39.2427 60.2652 39.732 60.7159 40.214C60.719 41.4842 60.6835 42.7532 60.6686 44.0229L60.6279 48.4674C60.6016 50.0302 60.5233 51.6097 60.5926 53.1717C59.9882 52.5342 59.4052 51.7387 58.9587 50.9803L59.0553 51.0062C59.1902 51.187 59.3659 51.3844 59.4646 51.586C59.533 51.7258 59.5944 51.797 59.7121 51.8948C59.7368 51.8488 59.758 51.8069 59.7743 51.7572C59.8926 51.3957 59.8597 49.8838 59.8606 49.4194C59.8617 48.8917 59.8481 48.3605 59.8675 47.8333C59.8839 47.3886 59.944 46.9436 59.9367 46.4985C59.9293 46.0477 59.872 45.5973 59.8484 45.1472C59.8295 44.7841 59.8608 44.4204 59.8475 44.0574C59.825 43.4412 59.7553 42.8241 59.7504 42.2072C59.7445 41.4426 59.8666 40.6364 59.7948 39.8751C59.7791 39.7079 59.6998 39.1786 59.6019 39.059C59.5126 38.95 59.3862 38.8665 59.319 38.7411C59.1367 38.4006 58.8261 38.1302 58.6357 37.7876L58.6637 37.7375Z" fill="white"/>
<path d="M58.6146 22.9698C58.63 22.9609 58.6456 22.9525 58.6606 22.943C58.9919 22.7335 60.5484 19.5798 61.0526 19.2734C61.0526 19.2734 61.6465 19.2531 61.82 19.2054C61.8656 19.2273 64.0318 22.662 64.2429 23.0026C64.3107 23.1121 64.6496 23.745 64.6906 23.7699C64.7133 23.7838 64.7431 23.7612 64.7694 23.7569C65.1396 24.3654 65.5016 24.99 65.7424 25.6629C65.9262 26.1765 66.0229 26.9456 66.3012 27.3916C66.3936 27.5396 66.5423 27.6399 66.7115 27.6791C66.8793 27.7179 67.0697 27.698 67.217 27.6051C67.6376 27.3399 68.3033 26.2637 68.6063 25.8269L68.6348 25.8776C69.323 27.112 69.4508 29.5207 69.3412 30.9269C69.2945 31.525 69.1313 32.204 69.2083 32.7964C69.2436 33.0682 69.3602 33.3166 69.6369 33.4054C69.9348 33.5009 70.2854 33.4005 70.5459 33.2475C71.4076 32.7413 71.9898 31.4152 72.6159 30.6446C72.8171 31.4965 73.1454 32.3047 73.2722 33.1754C73.7452 36.4227 73.1166 38.786 72.1895 41.8597C71.8585 42.9566 71.5364 44.0807 71.0995 45.1403C70.8545 45.7346 70.6371 46.7252 71.2904 47.1411C71.5071 47.2791 71.7778 47.2898 72.0219 47.2294C72.8444 47.0259 73.8941 45.8906 74.3067 45.1701C74.6478 44.5744 74.9078 43.9268 75.2304 43.3199C76.3376 41.2361 77.5665 39.9577 79.6262 38.7884C79.4883 39.3184 79.0089 41.023 79.2484 41.4595C79.3095 41.5709 79.4003 41.6313 79.5216 41.6597C79.7231 41.7069 79.9136 41.6593 80.0846 41.5467C80.3873 41.3473 80.6411 41.0096 80.8845 40.7435C81.5205 40.0488 82.142 39.2924 82.9165 38.7486C83.9066 38.0536 85.0919 37.6685 86.2057 37.219C86.8208 36.9644 87.4274 36.6909 88.0254 36.3983C88.8406 36.0037 89.6272 35.5483 90.4118 35.0967C90.7647 34.8936 91.1166 34.6603 91.4832 34.4841C91.3633 35.1576 91.3077 35.8446 91.2286 36.5241C91.0391 38.1509 90.8586 39.819 90.4674 41.4107C90.3682 41.8141 89.9023 42.8797 90.1265 43.2236C90.2337 43.388 90.3917 43.4941 90.5859 43.5271C91.0437 43.6049 91.5357 43.3687 91.9455 43.1928C91.6251 45.0267 90.3613 47.01 89.0751 48.3483C88.7469 48.6899 88.366 48.9759 88.0208 49.2994C87.8347 49.4739 87.4903 49.8685 87.6826 50.1393C87.8062 50.3131 88.0861 50.3478 88.2805 50.3577C89.2253 50.4056 90.9794 50.0607 91.869 49.7616C91.5371 50.6428 91.2198 51.562 90.7851 52.3977C89.8174 54.2576 88.1849 55.8289 86.45 56.9859C85.9565 57.3151 85.4359 57.6028 84.927 57.9066C84.4324 58.2018 84.0597 58.6945 84.3169 59.2838C84.3318 59.3173 84.3483 59.3499 84.3665 59.3817C84.3847 59.4135 84.4044 59.4443 84.4256 59.4742C84.4469 59.504 84.4696 59.5327 84.4937 59.5603C84.5178 59.5878 84.5432 59.6141 84.5699 59.6391C84.5967 59.6641 84.6246 59.6878 84.6537 59.71C84.6828 59.7323 84.713 59.753 84.7442 59.7722C84.7754 59.7914 84.8074 59.809 84.8403 59.825C84.8733 59.841 84.9069 59.8553 84.9413 59.868C85.5609 60.0936 88.0437 60.0881 88.8583 60.1512C89.9649 60.2479 91.0661 60.3868 92.162 60.5677C90.0756 62.8355 87.7748 64.9251 84.9528 66.2392C84.3038 66.5415 83.6158 66.7674 82.9438 67.0138C82.57 67.1508 81.7963 67.3585 81.802 67.8525C81.8076 68.3354 82.5531 68.9946 82.8959 69.2808C83.2125 69.5452 83.5617 69.7767 83.8693 70.05L83.8218 70.0609C82.6154 70.3465 82.0935 70.6476 80.7624 70.6265C79.3706 70.6044 77.9553 70.1381 76.626 69.7618C76.0481 69.5981 75.4387 69.4043 74.8389 69.3517C74.5934 69.3301 74.395 69.3634 74.1601 69.4335C73.9241 69.7031 73.7162 70.0164 73.7378 70.392C73.7693 70.9391 74.4153 71.4956 74.8059 71.8235C75.6102 72.4984 76.5283 72.993 77.4134 73.5486C77.9207 73.8671 78.4021 74.2304 78.8913 74.5757C80.5056 75.7154 82.044 76.8847 82.9537 78.6944C82.2993 78.7361 81.6579 78.7409 81.0058 78.8305C79.7227 79.0067 78.4605 79.3075 77.1697 79.4387C73.5988 79.8016 70.3975 78.8113 67.7011 76.4343C67.562 76.3131 67.425 76.1897 67.29 76.064C67.155 75.9382 67.0222 75.8102 66.8914 75.6801C66.7607 75.55 66.6322 75.4177 66.5058 75.2833C66.3795 75.1489 66.2555 75.0124 66.1337 74.8739C66.0119 74.7353 65.8924 74.5948 65.7753 74.4523C65.6582 74.3098 65.5434 74.1654 65.4311 74.019C65.3188 73.8728 65.2089 73.7246 65.1015 73.5746C64.9941 73.4247 64.8892 73.273 64.7868 73.1195C64.6844 72.966 64.5847 72.8109 64.4875 72.6542C64.3903 72.4974 64.2957 72.3391 64.2037 72.1792C64.1118 72.0192 64.0225 71.8578 63.9359 71.695C63.8493 71.5321 63.7655 71.3678 63.6843 71.2022C63.6032 71.0365 63.5248 70.8696 63.4492 70.7013C63.3736 70.533 63.3008 70.3636 63.2309 70.1929C63.1609 70.0222 63.0938 69.8504 63.0296 69.6775C62.9653 69.5046 62.9039 69.3307 62.8455 69.1557C62.6922 68.687 62.4887 68.1402 62.444 67.6497C62.4375 67.5781 62.4447 67.5257 62.4742 67.4591L62.517 67.4632C62.8554 67.8781 63.1521 68.3132 63.5121 68.7134C63.6155 68.8274 63.7198 68.9406 63.8252 69.0528C63.9305 69.165 64.0369 69.2763 64.1442 69.3867C64.2515 69.497 64.3597 69.6064 64.4689 69.7149C64.5781 69.8234 64.6882 69.9309 64.7993 70.0374C64.9104 70.144 65.0224 70.2496 65.1353 70.3542C65.2482 70.4589 65.362 70.5625 65.4767 70.6651C65.5915 70.7677 65.7071 70.8693 65.8236 70.9699C65.9401 71.0705 66.0575 71.1701 66.1757 71.2686C66.2939 71.3672 66.413 71.4647 66.5329 71.5612C66.6528 71.6577 66.7736 71.7531 66.8952 71.8475C67.0168 71.9419 67.1392 72.0352 67.2625 72.1274C67.3857 72.2197 67.5097 72.3108 67.6345 72.4009C67.7593 72.491 67.8849 72.58 68.0113 72.6678C68.1376 72.7557 68.2647 72.8425 68.3926 72.9282C68.5205 73.0139 68.6491 73.0984 68.7785 73.1819C68.9078 73.2653 69.0379 73.3476 69.1687 73.4287C69.2995 73.5099 69.4309 73.5899 69.5631 73.6688C69.6953 73.7476 69.8281 73.8254 69.9617 73.902C70.0952 73.9785 70.2294 74.0539 70.3643 74.1281C70.4991 74.2023 70.6346 74.2753 70.7707 74.3472C70.9068 74.419 71.0436 74.4897 71.181 74.5592C71.3183 74.6286 71.4563 74.6969 71.5948 74.7639C71.7333 74.831 71.8725 74.8968 72.0122 74.9615C72.1518 75.0261 72.2921 75.0895 72.4329 75.1517C72.5737 75.2139 72.715 75.2749 72.8568 75.3346C72.9987 75.3943 73.1411 75.4528 73.284 75.5101C73.4269 75.5673 73.5702 75.6233 73.7141 75.6781C73.8579 75.7328 74.0023 75.7863 74.147 75.8385C74.2919 75.8907 74.4371 75.9417 74.5828 75.9914C74.7285 76.0411 74.8746 76.0895 75.0211 76.1367C75.1676 76.1838 75.3146 76.2297 75.4618 76.2743C75.6092 76.3189 75.7569 76.3621 75.905 76.4042C76.7638 76.6541 77.6406 76.953 78.5243 77.0985L78.4806 77.0771C78.0066 76.8491 77.497 76.686 77.0104 76.4844C76.0014 76.0665 74.986 75.6295 74.0004 75.1592C73.7423 75.0333 73.4859 74.9042 73.231 74.7719C72.9762 74.6396 72.7231 74.5041 72.4716 74.3653C72.2202 74.2266 71.9706 74.0848 71.7227 73.9398C71.4749 73.7948 71.2289 73.6466 70.9849 73.4954C70.7407 73.3443 70.4985 73.19 70.2583 73.0327C70.0181 72.8754 69.7799 72.7151 69.5437 72.5517C69.3076 72.3884 69.0735 72.2221 68.8415 72.0529C68.6095 71.8837 68.3797 71.7116 68.152 71.5366C67.9244 71.3616 67.699 71.1837 67.4758 71.003C67.2526 70.8224 67.0318 70.6389 66.8132 70.4526C66.5947 70.2664 66.3785 70.0774 66.1648 69.8856C65.951 69.6939 65.7396 69.4996 65.5308 69.3026C65.3219 69.1055 65.1155 68.9058 64.9117 68.7036C64.7078 68.5014 64.5066 68.2966 64.3079 68.0893C64.1092 67.882 63.9132 67.6722 63.7198 67.46C63.5264 67.2477 63.3357 67.0331 63.1477 66.816C63.8196 66.9651 64.5324 66.9401 65.2174 66.9501C66.9916 66.9762 68.7471 66.8099 70.5047 66.583C74.2022 66.1059 77.8314 65.2825 81.4214 64.2852C83.5363 63.6977 85.7023 63.0886 87.6814 62.1232C86.9206 62.315 86.1714 62.5399 85.4069 62.72C82.8914 63.296 80.3619 63.8012 77.8182 64.2357C75.7093 64.6059 73.6075 64.9458 71.4734 65.1369C68.7982 65.3524 66.1189 65.4337 63.4356 65.3807C64.4313 64.603 65.4575 63.8644 66.4403 63.0702C68.9017 61.0495 71.2911 58.9471 73.6086 56.7628C76.0919 56.6565 79.0249 56.3775 81.4253 55.7582C82.5599 55.4655 83.685 55.0631 84.766 54.6129C86.0605 54.0737 87.2727 53.4229 88.526 52.8011L88.4757 52.8135C87.4702 53.0668 86.479 53.4967 85.4873 53.8124C84.0041 54.2843 82.4989 54.6219 80.9687 54.9007C79.645 55.1418 78.2679 55.2818 76.9249 55.3635C76.2701 55.4033 75.5965 55.3753 74.9476 55.4623C76.1135 54.2725 77.3792 53.1771 78.5617 52.0026C79.3801 51.1898 80.1456 50.3231 80.9323 49.48C81.8364 48.5111 82.7553 47.5656 83.617 46.5568C85.1355 44.7791 86.5229 42.8264 87.7421 40.8346C88.1197 40.2177 88.5469 39.6001 88.8593 38.9476C87.7132 40.5407 86.4378 41.9865 85.1408 43.4561C83.878 44.914 82.5724 46.3325 81.2241 47.7117C79.8758 49.0908 78.4873 50.4282 77.0585 51.7238C76.2242 52.4897 75.3232 53.1779 74.4882 53.9384C74.7172 51.9073 75.0781 49.8858 75.4532 47.8778C75.6312 46.9242 75.7732 45.9589 75.9954 45.0142C75.61 45.7143 75.4007 46.5911 75.1613 47.3531C74.5626 49.259 74.0552 51.1924 73.4577 53.0984C73.2024 53.9126 72.771 54.6474 72.6114 55.4908C71.9414 56.1115 71.2277 56.6919 70.5344 57.2865C68.6965 58.8508 66.8428 60.396 64.9731 61.9221C64.4716 62.3369 63.9642 62.7446 63.451 63.1449C63.0865 63.4298 62.6978 63.7016 62.3642 64.0226C62.3846 62.1236 62.3954 60.2245 62.3966 58.3253C62.3966 57.3237 62.4412 56.2947 62.3621 55.2965C63.1727 54.2739 63.834 53.1409 64.5475 52.0498C65.0754 51.2426 65.6312 50.4472 66.1375 49.6266C68.5606 45.6993 70.2343 41.9782 71.3101 37.4803C71.5629 36.4232 71.8731 35.3406 71.9619 34.2551C71.6933 35.0761 71.4942 35.92 71.2261 36.7426C70.4379 39.1615 69.4818 41.5608 68.289 43.8096C68.0601 44.2413 67.7979 44.8589 67.5005 45.2258C67.29 45.3246 66.6622 46.537 66.4864 46.8143C65.766 47.9464 65.0228 49.0634 64.2567 50.1651C63.9372 50.618 63.1257 51.5844 62.9368 52.0143C62.9177 52.058 62.9042 52.1056 62.8664 52.1382C62.7625 52.2277 62.5507 52.2232 62.4235 52.2231C62.3475 51.8042 62.3992 51.3023 62.3988 50.8723L62.4137 47.5991C62.4074 45.7686 62.3626 43.9316 62.3218 42.1016C62.3084 41.5014 62.2696 40.9011 62.2672 40.3012C62.5731 40.0099 62.8556 39.685 63.1203 39.3566L63.1116 39.2783C65.3192 36.3905 67.2369 33.1231 67.7241 29.4563C66.9902 31.4147 66.071 33.3264 64.9071 35.0686C64.8358 35.0855 64.8188 35.0938 64.7691 35.1498C64.5774 35.3662 64.4201 35.6703 64.2556 35.9117C64.0037 36.2814 62.7343 38.1147 62.4335 38.1937C62.3296 38.2209 62.314 38.2058 62.2323 38.1497C62.2138 37.5068 62.2567 36.8588 62.2332 36.219C62.2272 36.0543 62.1912 35.8938 62.193 35.7276C62.1974 35.3255 62.2409 34.9198 62.2311 34.518C62.1928 32.965 62.1027 31.4105 62.0771 29.857C62.062 28.9418 62.1186 28.0192 62.0744 27.1059C62.0712 27.0409 62.0643 26.9769 62.0495 26.9135C62.0029 26.7138 61.8974 26.5033 61.8837 26.2997C61.871 26.1114 61.954 25.9095 61.9251 25.7249C61.9022 25.5796 61.7843 25.4558 61.7817 25.3062C61.7792 25.1597 61.8339 25.0133 61.8304 24.8645C61.8239 24.5823 61.736 24.2843 61.7163 23.9955C61.6694 23.3063 61.6725 22.6006 61.6072 21.9153L61.5432 21.8803C61.5366 21.6126 61.5089 21.3474 61.4829 21.081L61.4056 21.0889C61.2747 21.4751 61.3267 22.7302 61.204 22.9542L61.0248 23.038C61.0144 22.9774 61.0131 22.9295 61.0192 22.8683L60.9948 22.8482C60.9413 22.9546 60.8557 23.0868 60.8275 23.2017C60.8034 23.2999 60.8159 23.4307 60.8133 23.532C60.805 23.8484 60.8096 24.1713 60.7749 24.4861C60.7262 24.9286 60.6367 25.3593 60.654 25.807C60.6659 26.1157 60.7473 26.4183 60.7815 26.7248C60.8202 27.073 60.7982 27.4469 60.7924 27.7975C60.7745 28.8712 60.671 29.9526 60.6691 31.0263C60.6683 31.5363 60.7721 32.7349 60.6332 33.1548C60.4353 33.7526 60.3695 34.8911 60.3341 35.5343C60.3182 35.8218 60.3383 36.1413 60.2731 36.4215C60.2236 36.6349 60.1167 36.9444 59.906 37.0533C59.8356 37.0898 59.7565 37.1033 59.6804 37.0766C59.1716 36.8988 58.473 35.2416 58.1333 35.1591C57.7947 34.7333 57.5188 34.2329 57.2351 33.7685C56.3456 32.3123 55.6852 31.059 54.9765 29.5081C55.105 30.1029 55.3026 30.6816 55.496 31.2579C56.0517 32.9147 56.7171 34.4753 57.5806 35.997C57.9169 36.5896 58.3411 37.1417 58.664 37.7377L58.636 37.7878C58.8264 38.1303 59.1369 38.4007 59.3192 38.7412C59.3864 38.8667 59.5128 38.9501 59.6021 39.0592C59.7 39.1787 59.7793 39.708 59.795 39.8753C59.8669 40.6365 59.7447 41.4428 59.7507 42.2074C59.7555 42.8242 59.8253 43.4413 59.8478 44.0575C59.8611 44.4205 59.8297 44.7842 59.8487 45.1473C59.8722 45.5975 59.9295 46.0478 59.9369 46.4986C59.9442 46.9438 59.8841 47.3888 59.8678 47.8335C59.8484 48.3606 59.8619 48.8918 59.8608 49.4196C59.8599 49.8839 59.8928 51.3958 59.7746 51.7573C59.7583 51.807 59.737 51.849 59.7123 51.8949C59.5946 51.7971 59.5333 51.726 59.4649 51.5862C59.3661 51.3845 59.1905 51.1871 59.0555 51.0063L58.9589 50.9804C58.3982 50.2414 57.9078 49.4147 57.4101 48.6304C56.7414 47.5713 56.1019 46.4947 55.4918 45.4008C54.8817 44.3068 54.3018 43.1971 53.7522 42.0715C52.7043 39.9622 51.7435 37.861 50.9794 35.6275C51.0675 36.2569 51.2447 36.8815 51.4004 37.4973C52.3845 41.3918 54.1689 44.9648 56.0447 48.4924C56.3974 49.1558 56.8015 49.7951 57.1764 50.4464C57.3235 50.7018 57.4964 50.966 57.6144 51.2359C57.613 51.2492 57.6098 51.2625 57.6104 51.2759C57.631 51.7349 60.1838 54.967 60.213 55.2598C60.2246 55.3742 60.1182 55.6208 60.0781 55.7348C59.905 56.2266 59.8232 59.6801 59.8641 60.3327C59.8964 60.8495 60.0098 61.9489 60.2138 62.377C60.2705 62.496 60.3449 62.5913 60.4228 62.696C60.5163 62.8217 60.5167 63.6027 60.4795 63.79C60.477 63.8028 60.4727 63.8151 60.4693 63.8277C60.0977 63.7686 59.2584 62.9806 58.9356 62.7251C57.5627 61.639 56.2223 60.5211 54.8633 59.4187C54.4881 59.1145 53.7464 58.4329 53.3848 58.2097C53.3442 58.1846 53.3036 58.1837 53.2577 58.1793C53.2479 58.1742 53.2377 58.1699 53.2284 58.1639C52.8408 57.9145 52.4748 57.5277 52.1229 57.2271C51.5339 56.724 50.4486 55.961 50.0434 55.3409C49.7331 54.8658 49.5854 54.163 49.4121 53.621C48.7186 51.5201 48.1396 49.3881 47.6751 47.225C47.5441 46.5988 47.5126 45.9225 47.338 45.3104C47.3348 45.299 47.3313 45.2877 47.3279 45.2763C47.2992 46.0915 47.367 46.9049 47.4333 47.7167C47.5273 48.866 47.6417 50.0323 47.8385 51.1684C48.0199 52.2152 48.2769 53.2487 48.5308 54.2798C48.0498 53.7603 47.5019 53.292 46.9833 52.8098C46.1299 52.0308 45.2944 51.2331 44.4766 50.4167C42.937 48.8815 41.4177 47.3265 39.9187 45.7517C38.3767 44.1473 36.7893 42.4899 35.343 40.8005C34.8397 40.2127 34.368 39.5945 33.88 38.9938C34.1642 39.5288 34.5475 40.0312 34.8861 40.5339C35.7485 41.8138 36.6344 43.0525 37.5878 44.2661C38.2643 45.1274 38.9165 46.0101 39.604 46.8624C40.3312 47.764 41.1014 48.6464 41.8716 49.5117C43.7114 51.5784 45.7073 53.5152 47.7242 55.4074C43.0539 55.398 38.291 54.7192 34.0575 52.6662C34.08 52.6924 34.0816 52.696 34.1126 52.7214C34.5686 53.0936 35.5168 53.5353 36.0721 53.8012C39.2633 55.3292 42.7468 56.3989 46.2743 56.7413C47.2049 56.8316 48.1428 56.9017 49.0709 56.7523C49.4965 57.0338 49.8831 57.4351 50.261 57.7775C50.9952 58.4424 51.7221 59.1188 52.4716 59.7663C54.6918 61.6845 56.9882 63.502 59.2458 65.3735C56.8574 65.3783 54.4802 65.3475 52.0973 65.1545C49.0875 64.9107 46.0802 64.4104 43.1136 63.8595C41.3803 63.5377 39.3994 63.1741 37.7074 62.7205C36.846 62.4896 36.0168 62.1737 35.1653 61.9132C36.1981 62.4418 37.2783 62.951 38.3741 63.3351C39.3643 63.6821 40.3775 63.9409 41.383 64.2375C42.452 64.5622 43.5288 64.8584 44.6135 65.1259C45.6982 65.3935 46.7892 65.6321 47.8866 65.8418C48.9839 66.0515 50.0861 66.2319 51.193 66.383C52.2999 66.5342 53.4101 66.6559 54.5235 66.7481C56.2015 66.9019 57.9782 67.0999 59.6517 66.8204C58.8898 67.5956 58.1571 68.4086 57.3676 69.155C57.0032 69.5006 56.6317 69.8382 56.2529 70.1678C55.8741 70.4975 55.4883 70.8188 55.0956 71.1318C54.703 71.4449 54.3038 71.7494 53.8981 72.0452C53.4924 72.3412 53.0805 72.6282 52.6624 72.9064C52.2443 73.1845 51.8205 73.4536 51.3908 73.7136C50.9612 73.9736 50.5262 74.2242 50.0858 74.4655C49.6454 74.7067 49.2 74.9384 48.7497 75.1606C48.2993 75.3827 47.8444 75.595 47.3849 75.7976C46.8044 76.0598 46.2131 76.2946 45.6109 76.5022C45.1538 76.6594 44.6819 76.7906 44.2373 76.9809L44.1849 77.0036C44.85 76.8825 45.5045 76.7099 46.1581 76.5391C46.9163 76.341 47.6769 76.1524 48.418 75.8957C51.8497 74.7067 55.2575 72.6655 57.8729 70.1426C58.4436 69.5964 58.9876 69.0246 59.5047 68.4274C59.7115 68.1849 60.0742 67.5831 60.3187 67.4533L60.381 67.4775L60.4011 67.5606C60.1612 68.251 60.0139 68.9685 59.7594 69.6555C58.6545 72.6388 56.8376 75.2069 54.2895 77.1242C54.0774 77.2841 53.8603 77.4367 53.638 77.5822C53.4157 77.7276 53.1889 77.8654 52.9574 77.9957C52.7259 78.1259 52.4904 78.2483 52.2508 78.3628C52.0111 78.4773 51.7679 78.5837 51.5212 78.682C47.5608 80.2874 43.7761 79.0572 39.7698 78.4915C40.2081 77.9539 40.6408 77.4007 41.1212 76.8996C41.9277 76.0585 42.8888 75.3166 43.8369 74.6421C45.3699 73.5517 48.0236 72.3768 49.08 70.8632C49.2482 70.6221 49.3295 70.3496 49.2666 70.0561C49.2605 70.027 49.253 69.9983 49.2439 69.9701C49.2349 69.9418 49.2245 69.914 49.2127 69.8868C49.2009 69.8595 49.1877 69.8329 49.1733 69.807C49.1588 69.7811 49.1431 69.7559 49.1261 69.7315C49.1091 69.7072 49.0909 69.6838 49.0716 69.6612C49.0522 69.6387 49.0318 69.6172 49.0103 69.5967C48.9888 69.5763 48.9663 69.5569 48.9429 69.5387C48.9194 69.5205 48.8952 69.5035 48.87 69.4877C48.6836 69.3708 48.4794 69.3365 48.2626 69.3499C47.7178 69.3836 47.1837 69.6273 46.6659 69.784C46.0745 69.9629 45.4694 70.119 44.8677 70.258C42.8578 70.7225 40.9521 70.9265 39.1012 69.772C39.4196 69.5162 39.7434 69.2663 40.0535 69.0004C40.4146 68.6908 41.0752 68.1604 41.0952 67.6443C41.1 67.5225 41.0652 67.4091 40.9724 67.3257C40.4289 66.8371 38.1197 66.2638 37.2826 65.9022C35.6197 65.1836 34.0783 64.2115 32.7927 62.9294C32.0495 62.1883 31.3699 61.3611 30.6702 60.5779C32.2521 60.143 33.7467 59.9269 35.3906 59.9923C36.1175 60.0211 36.9037 60.146 37.6273 60.0811C37.9532 60.0518 38.2356 59.9198 38.4393 59.658C38.4592 59.6326 38.4777 59.6063 38.4948 59.5791C38.512 59.5518 38.5277 59.5238 38.542 59.4948C38.5563 59.466 38.569 59.4364 38.5802 59.4063C38.5914 59.3761 38.6011 59.3454 38.6091 59.3141C38.6172 59.283 38.6236 59.2515 38.6284 59.2196C38.6332 59.1877 38.6364 59.1557 38.6379 59.1235C38.6394 59.0914 38.6392 59.0592 38.6373 59.027C38.6355 58.9949 38.6321 58.9629 38.627 58.9311C38.6019 58.7657 38.5369 58.5905 38.4342 58.4573C37.8896 57.7502 36.4959 56.9753 35.7358 56.4415C33.4722 54.8514 31.5163 52.5624 31.0283 49.7722C31.446 49.8525 31.8686 49.9261 32.2806 50.0313C32.8502 50.1767 33.4158 50.366 33.9947 50.4692C34.2107 50.5077 34.561 50.5755 34.7411 50.4172C34.8309 50.3382 34.8607 50.2186 34.8654 50.1039C34.8989 49.2765 33.3451 47.8896 32.7795 47.2476C31.871 46.2159 30.7896 44.6194 30.8813 43.1741C31.2191 43.2916 31.611 43.4408 31.9716 43.4312C32.1426 43.4266 32.311 43.3754 32.4255 43.2424C32.5844 43.0578 32.5854 42.7934 32.5689 42.5641C32.5009 41.6189 32.2478 40.6576 32.0728 39.7247C31.7427 37.9644 31.4137 36.0323 31.3226 34.2436C31.7462 34.4778 32.1416 34.7907 32.5458 35.0591C33.173 35.4735 33.8212 35.852 34.4902 36.1946C36.1719 37.0473 38.419 37.7709 39.9045 38.8145C40.5671 39.2799 41.1724 39.8701 41.7042 40.48C42.0411 40.8666 42.3988 41.4169 42.8195 41.71C42.9699 41.8148 43.1345 41.8692 43.3178 41.8337C43.4593 41.8063 43.6016 41.7342 43.68 41.6093C44.0124 41.08 43.3036 39.8861 43.1742 39.3162C43.1383 39.1575 43.0542 38.8933 43.1463 38.7479C43.2462 38.7357 43.8654 39.2438 43.9917 39.3365C45.0542 40.1164 46.0647 40.9517 46.8687 42.0076C47.2297 42.4816 47.5738 42.998 47.8546 43.5234C48.4206 44.5826 49.1562 46.7101 50.3481 47.119C50.6736 47.2307 51.0126 47.2008 51.3193 47.047C51.7287 46.8417 51.9218 46.3129 51.9019 45.8749C51.8681 45.1337 51.3035 43.6441 51.0598 42.895C50.6002 41.4831 50.0719 40.0495 49.7535 38.5993C49.3436 36.7329 49.3412 34.4392 49.7311 32.5654C49.8524 31.9829 50.0349 31.4256 50.2297 30.8647C50.757 31.6992 51.4363 32.8999 52.3863 33.2957C52.6371 33.4002 53.0076 33.4531 53.2625 33.3351C53.506 33.2225 53.6414 32.9918 53.6784 32.7327C53.7583 32.1756 53.6039 31.5419 53.5753 30.9794C53.4865 29.2409 53.5766 27.3539 54.173 25.7042C54.7 26.2278 54.9903 27.0095 55.565 27.4753C55.7163 27.598 55.9144 27.7073 56.1163 27.6768C56.3178 27.6464 56.4572 27.4949 56.5595 27.3297C56.8453 26.8688 56.9904 26.2724 57.1822 25.7632C57.5044 24.9072 58.0513 23.7562 58.576 23.0227L58.6146 22.9698Z" fill="url(#paint0_linear_97_45)"/>
<defs>
<linearGradient id="paint0_linear_97_45" x1="33.7801" y1="35.1" x2="87.2951" y2="69.75" gradientUnits="userSpaceOnUse">
<stop stop-color="#035800"/>
<stop offset="1" stop-color="#024A00"/>
</linearGradient>
</defs>
</svg>
